<svg width="633" height="630" viewBox="0 0 633 630" fill="none" xmlns="http://www.w3.org/2000/svg">
<path d="M224.632 18.1737C210.874 22.4065 155.449 31.637 94.496 83.8151C79.7309 96.4547 41.2265 126.036 15.73 194.727C-27.673 311.646 23.6419 528.063 173.234 599.547C347.479 682.808 567.58 580.324 617.781 443.171C640.046 382.341 641.05 281.466 584.961 214.949C539.821 161.414 462.629 135.979 465.618 85.3414C467.057 60.9552 485.711 54.2131 480.535 38.8532C468.265 2.42265 321.855 -11.7294 224.629 18.1702L224.632 18.1737Z" fill="#1B61B5" fill-opacity="0.05"/>
<path d="M42.6691 165.886C42.164 165.886 41.7005 165.547 41.5656 165.038L40.0503 159.331C39.8877 158.722 40.2509 158.095 40.8598 157.936C41.4652 157.766 42.0949 158.137 42.254 158.746L43.7693 164.453C43.9319 165.062 43.5686 165.689 42.9597 165.848C42.8629 165.876 42.7625 165.886 42.6657 165.886H42.6691Z" fill="#1A1A1A"/>
<path d="M46.2014 179.183C45.6963 179.183 45.2327 178.844 45.0978 178.335L43.5825 172.628C43.4199 172.019 43.7832 171.392 44.392 171.233C44.9975 171.067 45.6271 171.434 45.7862 172.043L47.3015 177.75C47.4641 178.359 47.1008 178.986 46.492 179.145C46.3951 179.173 46.2948 179.183 46.1979 179.183H46.2014Z" fill="#1A1A1A"/>
<path d="M34.1795 172.209C33.6744 172.209 33.2108 171.87 33.0759 171.361C32.9133 170.752 33.2766 170.126 33.8854 169.963L39.5902 168.447C40.2025 168.281 40.8252 168.648 40.9878 169.257C41.1504 169.866 40.7872 170.493 40.1783 170.655L34.4736 172.171C34.3732 172.199 34.2764 172.209 34.1795 172.209Z" fill="#1A1A1A"/>
<path d="M47.471 168.672C46.9659 168.672 46.5023 168.333 46.3674 167.824C46.2048 167.215 46.5681 166.589 47.1769 166.429L52.8817 164.913C53.4871 164.747 54.1167 165.114 54.2759 165.723C54.4385 166.332 54.0752 166.959 53.4663 167.118L47.7616 168.634C47.6647 168.662 47.5644 168.672 47.4675 168.672H47.471Z" fill="#1A1A1A"/>
<path d="M61.3919 144.957C60.5444 144.957 59.6933 144.815 58.87 144.528C56.943 143.857 55.3932 142.472 54.5041 140.631C53.615 138.793 53.4973 136.717 54.172 134.789C54.8466 132.861 56.2269 131.311 58.0674 130.421C59.9078 129.532 61.9801 129.414 63.907 130.089C65.834 130.76 67.3838 132.145 68.2729 133.986C70.103 137.783 68.5047 142.362 64.7096 144.196C63.6579 144.705 62.5267 144.961 61.3919 144.961V144.957ZM61.385 131.944C60.5893 131.944 59.7971 132.124 59.0602 132.48C57.7698 133.103 56.8012 134.19 56.3272 135.543C55.8567 136.897 55.9363 138.35 56.559 139.641C57.1817 140.932 58.268 141.901 59.6207 142.372C60.9733 142.843 62.4263 142.76 63.7167 142.14C66.3806 140.856 67.5014 137.644 66.218 134.983C65.5952 133.692 64.509 132.723 63.1563 132.252C62.5786 132.051 61.9801 131.951 61.385 131.951V131.944Z" fill="#1A1A1A"/>
<path d="M97.831 582.56H449.448C459.121 582.56 466.974 574.821 466.992 565.276L467.87 81.7074C467.642 68.7563 461.335 61.3913 450.417 61.3913H98.7893C90.0956 61.3913 82.6749 67.6522 81.2704 76.1594L80.3501 565.276C80.3328 574.821 88.1582 582.56 97.831 582.56Z" fill="#CADDFF"/>
<path d="M115.319 583.536H466.936C476.609 583.536 484.469 575.749 484.493 566.148L485.697 79.6377C485.476 66.607 479.176 59.197 468.254 59.197H116.63C107.936 59.197 100.512 65.496 99.1006 74.0551L97.8482 566.148C97.824 575.752 105.646 583.536 115.315 583.536H115.319Z" fill="white"/>
<path d="M115.322 584.678C110.313 584.678 105.615 582.733 102.097 579.203C98.613 575.707 96.6999 571.069 96.7102 566.144L97.582 222.982C97.582 222.352 98.094 221.843 98.7237 221.843C99.3533 221.843 99.8653 222.359 99.8619 222.989L98.9901 566.151C98.9797 570.467 100.654 574.527 103.709 577.59C106.798 580.687 110.922 582.394 115.319 582.394L358.329 581.985C358.958 581.985 359.47 582.494 359.47 583.124C359.47 583.754 358.962 584.266 358.332 584.27L115.319 584.678H115.322Z" fill="#1A1A1A"/>
<path d="M99.3116 74.1312C99.2286 74.1312 99.1421 74.1208 99.0556 74.1035C98.4398 73.9651 98.0558 73.3525 98.1977 72.7364C100.17 64.0943 107.749 58.0549 116.63 58.0549H459.349C459.979 58.0549 460.491 58.5671 460.491 59.197C460.491 59.8269 459.979 60.3391 459.349 60.3391H116.63C108.822 60.3391 102.155 65.6448 100.422 73.2452C100.301 73.7747 99.8306 74.1347 99.3116 74.1347V74.1312Z" fill="#1A1A1A"/>
<path d="M215.499 96.742H379.085C383.299 96.742 386.724 93.3502 386.734 89.1658L386.828 51.4963C386.838 47.3119 383.431 43.9201 379.217 43.9201H215.631C211.417 43.9201 207.992 47.3119 207.982 51.4963L207.888 89.1658C207.878 93.3502 211.285 96.742 215.499 96.742Z" fill="#CADDFF"/>
<path d="M379.085 97.8841H215.499C213.143 97.8841 210.936 96.9704 209.279 95.3091C207.639 93.6651 206.74 91.4812 206.743 89.1624L206.837 51.4928C206.847 46.6889 210.791 42.778 215.627 42.778H379.213C381.569 42.778 383.777 43.6917 385.43 45.353C387.07 46.9969 387.969 49.1808 387.966 51.4997L387.873 89.1693C387.859 93.9766 383.915 97.8841 379.082 97.8841H379.085ZM215.631 45.0622C212.05 45.0622 209.13 47.9487 209.123 51.4997L209.026 89.1693C209.023 90.8756 209.687 92.4849 210.895 93.6963C212.119 94.9249 213.752 95.5998 215.496 95.5998H379.082C382.659 95.5998 385.579 92.7134 385.589 89.1624L385.683 51.4928C385.686 49.7865 385.022 48.1771 383.815 46.9658C382.59 45.7371 380.957 45.0622 379.213 45.0622H215.627H215.631Z" fill="#1A1A1A"/>
<path d="M297.441 1.13861C280.531 1.13861 266.852 14.7508 266.81 31.5436L266.696 77.1112C266.686 81.209 270.021 84.5281 274.148 84.5281H320.315C324.439 84.5281 327.795 81.209 327.805 77.1112L327.919 31.5436C327.961 14.7508 314.354 1.13861 297.441 1.13861ZM299.046 42.7814C290.906 43.799 284.08 37.005 285.125 28.9236C285.838 23.4171 290.328 18.9732 295.874 18.281C304.014 17.2634 310.84 24.0574 309.791 32.1354C309.079 37.6418 304.592 42.0858 299.046 42.7814Z" fill="#CADDFF"/>
<path d="M320.315 85.6702H274.148C271.837 85.6702 269.668 84.7738 268.042 83.1437C266.433 81.5309 265.548 79.385 265.555 77.1112L265.669 31.5436C265.714 14.152 279.967 -5.72205e-05 297.441 -5.72205e-05C305.948 -5.72205e-05 313.922 3.29828 319.893 9.28928C325.826 15.2388 329.082 23.1437 329.061 31.5505L328.947 77.1181C328.936 81.8354 325.062 85.6737 320.319 85.6737L320.315 85.6702ZM297.441 2.28075C281.223 2.28075 267.994 15.4083 267.952 31.547L267.838 77.1146C267.835 78.7794 268.481 80.3472 269.658 81.5309C270.851 82.7284 272.446 83.386 274.145 83.386H320.312C323.802 83.386 326.65 80.5687 326.66 77.1077L326.774 31.5401C326.795 23.7459 323.775 16.4155 318.274 10.8987C312.732 5.34028 305.332 2.28075 297.438 2.28075H297.441ZM297.427 44.0239C293.802 44.0239 290.363 42.6153 287.789 40.0299C284.835 37.0604 283.451 32.9591 283.994 28.7782C284.769 22.7941 289.706 17.9003 295.732 17.1492C299.991 16.6197 304.142 18.0318 307.128 21.0359C310.082 24.0055 311.466 28.1033 310.923 32.2877C310.148 38.2717 305.211 43.1656 299.188 43.9166C298.6 43.9893 298.012 44.0274 297.427 44.0274V44.0239ZM297.483 19.3227C296.995 19.3227 296.507 19.3539 296.012 19.4127C291.003 20.0392 286.9 24.1024 286.256 29.0689C285.807 32.5438 286.955 35.9529 289.408 38.4171C291.892 40.9125 295.358 42.0927 298.904 41.6462C303.914 41.0198 308.017 36.9566 308.66 31.99C309.11 28.5152 307.961 25.1095 305.509 22.6453C303.367 20.496 300.503 19.3227 297.483 19.3227Z" fill="#1A1A1A"/>
<path d="M172.719 203.794H143.161C141.058 203.794 139.086 202.978 137.609 201.496C136.142 200.025 135.339 198.077 135.343 196.004L135.415 166.654C135.426 162.363 138.947 158.867 143.268 158.867H172.826C174.93 158.867 176.902 159.684 178.379 161.165C179.846 162.636 180.648 164.585 180.645 166.658L180.572 196.007C180.562 200.299 177.04 203.794 172.719 203.794ZM143.268 161.151C140.203 161.151 137.705 163.622 137.698 166.658L137.626 196.007C137.622 197.468 138.19 198.842 139.224 199.88C140.272 200.932 141.67 201.51 143.161 201.51H172.719C175.784 201.51 178.282 199.039 178.289 196.004L178.365 166.654C178.368 165.194 177.801 163.82 176.767 162.781C175.718 161.729 174.321 161.151 172.83 161.151H143.272H143.268Z" fill="#1A1A1A"/>
<path d="M154.75 197.243C154.394 197.243 154.031 197.208 153.671 197.142C151.657 196.758 150.004 195.339 149.322 193.415L144.226 180.135C143.396 177.975 144.476 175.553 146.634 174.725C148.793 173.895 151.215 174.975 152.042 177.134L155.318 185.679L166.717 167.686C167.955 165.734 170.539 165.152 172.494 166.391C174.445 167.63 175.026 170.216 173.788 172.171L159.355 194.958L159.182 195.166C158.075 196.499 156.442 197.25 154.743 197.25L154.75 197.243Z" fill="#34A853"/>
<path d="M172.383 279.102H142.825C140.722 279.102 138.75 278.286 137.273 276.804C135.806 275.333 135.003 273.385 135.007 271.312L135.08 241.962C135.09 237.671 138.612 234.175 142.933 234.175H172.491C174.594 234.175 176.566 234.992 178.047 236.473C179.513 237.944 180.316 239.893 180.313 241.966L180.24 271.315C180.23 275.607 176.708 279.102 172.387 279.102H172.383ZM142.933 236.459C139.867 236.459 137.37 238.93 137.363 241.966L137.29 271.315C137.287 272.776 137.854 274.15 138.888 275.188C139.937 276.24 141.334 276.818 142.825 276.818H172.383C175.448 276.818 177.946 274.347 177.953 271.312L178.029 241.962C178.033 240.502 177.465 239.128 176.431 238.089C175.383 237.037 173.985 236.459 172.494 236.459H142.936H142.933Z" fill="#1A1A1A"/>
<path d="M154.415 272.551C154.058 272.551 153.695 272.516 153.335 272.45C151.322 272.07 149.668 270.647 148.987 268.723L143.894 255.443C143.064 253.283 144.143 250.861 146.302 250.033C148.461 249.203 150.882 250.283 151.709 252.442L154.985 260.987L166.384 242.994C167.623 241.042 170.207 240.46 172.162 241.699C174.113 242.938 174.694 245.524 173.456 247.479L159.023 270.266L158.85 270.474C157.743 271.807 156.11 272.558 154.411 272.558L154.415 272.551Z" fill="#34A853"/>
<path d="M137.462 344.859L137.462 344.858L137.534 315.509C137.534 315.509 137.534 315.509 137.534 315.509C137.543 312.674 139.864 310.36 142.746 310.36H172.304C175.182 310.36 177.489 312.673 177.481 315.501L177.481 315.502L177.408 344.85C177.408 344.85 177.408 344.851 177.408 344.851C177.4 347.686 175.078 350 172.197 350H142.639C139.76 350 137.454 347.687 137.462 344.859Z" fill="white" stroke="#E0E0E0" stroke-width="3"/>
<path d="M137.936 420.89L137.936 420.89L138.008 391.541C138.008 391.541 138.008 391.54 138.008 391.54C138.016 388.705 140.338 386.391 143.22 386.391H172.778C175.656 386.391 177.963 388.704 177.955 391.532L177.955 391.533L177.882 420.882C177.882 420.882 177.882 420.882 177.882 420.882C177.874 423.717 175.552 426.031 172.67 426.031H143.112C140.234 426.031 137.928 423.718 137.936 420.89Z" fill="white" stroke="#E0E0E0" stroke-width="3"/>
<path d="M138.084 495.907L138.084 495.907L138.157 466.558C138.157 466.558 138.157 466.558 138.157 466.558C138.165 463.722 140.487 461.409 143.368 461.409H172.926C175.805 461.409 178.111 463.722 178.103 466.55L178.103 466.55L178.031 495.899C178.031 495.899 178.031 495.899 178.031 495.9C178.022 498.735 175.7 501.048 172.819 501.048H143.261C140.382 501.048 138.076 498.736 138.084 495.907Z" fill="white" stroke="#E0E0E0" stroke-width="3"/>
<path d="M382.842 145.712H214.88C211.424 145.712 208.629 142.929 208.636 139.496L208.649 134.318C208.656 130.885 211.469 128.102 214.925 128.102H382.887C386.343 128.102 389.139 130.885 389.132 134.318L389.118 139.496C389.108 142.929 386.298 145.712 382.842 145.712Z" fill="#CADDFF"/>
<path d="M446.933 189.012H210.767C207.311 189.012 204.515 186.23 204.522 182.796C204.529 179.363 207.338 176.58 210.798 176.58H446.964C450.421 176.58 453.216 179.363 453.209 182.796C453.202 186.23 450.393 189.012 446.933 189.012Z" fill="#CADDFF"/>
<path d="M413.49 221.051H210.718C207.262 221.051 204.467 218.268 204.474 214.835C204.484 211.402 207.293 208.619 210.749 208.619H413.522C416.978 208.619 419.773 211.402 419.766 214.835C419.756 218.268 416.946 221.051 413.49 221.051Z" fill="#CADDFF"/>
<path d="M429.643 264.874H210.853C207.397 264.874 204.602 262.092 204.609 258.658C204.616 255.225 207.425 252.442 210.884 252.442H429.674C433.13 252.442 435.925 255.225 435.918 258.658C435.911 262.092 433.102 264.874 429.643 264.874Z" fill="#CADDFF"/>
<path d="M334.105 296.314H211.026C207.57 296.314 204.775 293.531 204.782 290.098C204.788 286.665 207.601 283.882 211.057 283.882H334.136C337.592 283.882 340.387 286.665 340.38 290.098C340.37 293.531 337.561 296.314 334.105 296.314Z" fill="#CADDFF"/>
<path d="M446.563 336.818H210.397C206.94 336.818 204.145 334.035 204.152 330.602C204.162 327.169 206.972 324.386 210.428 324.386H446.594C450.05 324.386 452.846 327.169 452.839 330.602C452.832 334.035 450.019 336.818 446.563 336.818Z" fill="#CADDFF"/>
<path d="M413.123 368.857H210.351C206.895 368.857 204.1 366.074 204.107 362.641C204.117 359.207 206.926 356.425 210.382 356.425H413.155C416.611 356.425 419.406 359.207 419.399 362.641C419.392 366.074 416.583 368.857 413.123 368.857Z" fill="#CADDFF"/>
<path d="M441.35 412.683H209.985C206.529 412.683 203.733 409.901 203.74 406.467C203.747 403.034 206.556 400.251 210.016 400.251H441.381C444.837 400.251 447.632 403.034 447.625 406.467C447.618 409.901 444.809 412.683 441.35 412.683Z" fill="#CADDFF"/>
<path d="M333.742 441.936H210.663C207.207 441.936 204.412 439.153 204.418 435.72C204.425 432.286 207.235 429.504 210.694 429.504H333.773C337.229 429.504 340.024 432.286 340.017 435.72C340.007 439.153 337.198 441.936 333.742 441.936Z" fill="#CADDFF"/>
<path d="M446.954 483.894H210.787C207.331 483.894 204.536 481.111 204.543 477.678C204.55 474.244 207.359 471.462 210.819 471.462H446.985C450.441 471.462 453.237 474.244 453.23 477.678C453.223 481.111 450.414 483.894 446.954 483.894Z" fill="#CADDFF"/>
<path d="M413.515 515.932H210.742C207.286 515.932 204.491 513.149 204.498 509.716C204.508 506.283 207.318 503.5 210.774 503.5H413.546C417.002 503.5 419.797 506.283 419.79 509.716C419.78 513.149 416.971 515.932 413.515 515.932Z" fill="#CADDFF"/>
<path d="M512.169 431.657H197.548V611.85H512.169V431.657Z" fill="white"/>
<path d="M512.169 612.996H197.548C196.918 612.996 196.406 612.484 196.406 611.854V431.66C196.406 431.03 196.918 430.518 197.548 430.518H512.169C512.799 430.518 513.311 431.03 513.311 431.66V611.854C513.311 612.484 512.799 612.996 512.169 612.996ZM198.69 610.712H511.028V432.802H198.69V610.712Z" fill="#1A1A1A"/>
<path d="M246.147 515.105H212.493C211.154 515.105 210.068 516.191 210.068 517.531V581.373C210.068 582.713 211.154 583.799 212.493 583.799H246.147C247.486 583.799 248.572 582.713 248.572 581.373V517.531C248.572 516.191 247.486 515.105 246.147 515.105Z" fill="#6C6C6C"/>
<path d="M219.429 550.715C219.153 550.715 218.876 550.615 218.658 550.414C218.194 549.988 218.163 549.265 218.592 548.801L240.003 525.516C240.429 525.052 241.152 525.021 241.615 525.45C242.079 525.876 242.11 526.599 241.681 527.063L220.27 550.348C220.045 550.594 219.737 550.719 219.429 550.719V550.715Z" fill="white"/>
<path d="M218.243 571.201C217.973 571.201 217.7 571.104 217.482 570.91C217.011 570.491 216.97 569.768 217.392 569.297L236.903 547.427C237.322 546.957 238.045 546.915 238.515 547.337C238.986 547.756 239.027 548.479 238.605 548.95L219.094 570.82C218.869 571.073 218.554 571.201 218.243 571.201Z" fill="white"/>
<path d="M497.933 515.105H464.279C462.94 515.105 461.854 516.191 461.854 517.531V581.373C461.854 582.713 462.94 583.799 464.279 583.799H497.933C499.273 583.799 500.359 582.713 500.359 581.373V517.531C500.359 516.191 499.273 515.105 497.933 515.105Z" fill="#6C6C6C"/>
<path d="M471.216 546.863C470.939 546.863 470.662 546.763 470.444 546.562C469.981 546.136 469.95 545.413 470.379 544.949L491.046 522.473C491.471 522.01 492.194 521.979 492.658 522.408C493.121 522.833 493.152 523.557 492.723 524.02L472.056 546.496C471.832 546.742 471.524 546.867 471.216 546.867V546.863Z" fill="white"/>
<path d="M470.033 571.201C469.763 571.201 469.489 571.104 469.271 570.91C468.801 570.491 468.759 569.768 469.181 569.297L488.69 547.427C489.108 546.957 489.831 546.915 490.302 547.337C490.772 547.756 490.814 548.479 490.392 548.95L470.884 570.82C470.659 571.073 470.344 571.201 470.033 571.201Z" fill="white"/>
<path d="M274.605 331.89H255.643V374.432H274.605V331.89Z" fill="#5479F7"/>
<path d="M517.583 445.175H192.13C189.321 445.175 187.366 442.382 188.328 439.745L213.607 370.283C214.191 368.677 215.724 367.611 217.433 367.621L491.623 369.272C493.291 369.282 494.778 370.314 495.377 371.871L521.361 439.679C522.378 442.33 520.42 445.175 517.583 445.175Z" fill="#1B61B5"/>
<path d="M517.583 446.317H192.13C190.438 446.317 188.851 445.49 187.882 444.102C186.913 442.718 186.678 440.942 187.259 439.35L212.538 369.891C213.282 367.846 215.24 366.475 217.412 366.475H217.443L491.634 368.126C493.785 368.14 495.674 369.448 496.446 371.459L522.43 439.267C523.042 440.863 522.828 442.656 521.863 444.064C520.894 445.473 519.296 446.314 517.587 446.314L517.583 446.317ZM217.409 368.763C216.191 368.763 215.098 369.528 214.679 370.674L189.401 440.136C189.072 441.039 189.2 442.008 189.75 442.794C190.3 443.583 191.168 444.033 192.13 444.033H517.583C518.555 444.033 519.427 443.573 519.977 442.773C520.527 441.974 520.642 440.994 520.296 440.088L494.311 372.28C493.879 371.155 492.824 370.421 491.616 370.414L217.426 368.763H217.409Z" fill="#1A1A1A"/>
<path d="M450.033 611.854L449.386 435.633L355.931 317.028L259.68 433.979L260.583 611.854H450.033Z" fill="white"/>
<path d="M450.033 612.996H260.583C259.954 612.996 259.445 612.487 259.442 611.861L258.539 433.989C258.539 433.723 258.629 433.463 258.798 433.259L355.049 316.305C355.267 316.038 355.613 315.858 355.941 315.889C356.287 315.893 356.612 316.052 356.827 316.325L450.282 434.931C450.441 435.131 450.528 435.377 450.528 435.633L451.175 611.854C451.175 612.158 451.057 612.449 450.842 612.664C450.628 612.878 450.337 612.999 450.033 612.999V612.996ZM261.718 610.712H448.888L448.248 436.031L355.914 318.849L260.826 434.387L261.718 610.712Z" fill="#1A1A1A"/>
<path d="M278.13 583.799L310.532 583.972C312.199 583.972 313.548 582.619 313.548 580.954V518.299C313.548 516.631 312.196 515.281 310.532 515.281L278.13 515.108C276.462 515.108 275.113 516.462 275.113 518.126V580.781C275.113 582.449 276.466 583.799 278.13 583.799Z" fill="#6C6C6C"/>
<path d="M284.464 564.846C284.195 564.846 283.921 564.75 283.703 564.556C283.233 564.137 283.191 563.414 283.613 562.943L303.121 541.073C303.54 540.602 304.263 540.561 304.734 540.983C305.204 541.402 305.246 542.125 304.824 542.596L285.315 564.466C285.091 564.718 284.776 564.846 284.464 564.846Z" fill="white"/>
<path d="M398.147 583.799L430.549 583.972C432.217 583.972 433.566 582.619 433.566 580.954V518.299C433.566 516.631 432.213 515.281 430.549 515.281L398.147 515.108C396.48 515.108 395.131 516.462 395.131 518.126V580.781C395.131 582.449 396.483 583.799 398.147 583.799Z" fill="#6C6C6C"/>
<path d="M404.478 554.83C404.208 554.83 403.935 554.733 403.717 554.54C403.247 554.121 403.205 553.397 403.627 552.927L423.135 531.057C423.554 530.586 424.277 530.544 424.748 530.967C425.218 531.385 425.26 532.109 424.837 532.58L405.329 554.45C405.104 554.702 404.79 554.83 404.478 554.83Z" fill="white"/>
<path d="M380.099 612.245H329.829V519.677C329.829 517.154 331.873 515.108 334.395 515.108H375.532C378.054 515.108 380.099 517.154 380.099 519.677V612.245Z" fill="#1B61B5"/>
<path d="M380.099 613.387H329.829C329.199 613.387 328.687 612.875 328.687 612.245V519.677C328.687 516.527 331.247 513.966 334.395 513.966H375.532C378.681 513.966 381.241 516.527 381.241 519.677V612.245C381.241 612.875 380.729 613.387 380.099 613.387ZM330.971 611.103H378.957V519.677C378.957 517.787 377.421 516.251 375.532 516.251H334.395C332.507 516.251 330.971 517.787 330.971 519.677V611.103Z" fill="#1A1A1A"/>
<path d="M343.667 558.748C343.401 558.748 343.134 558.655 342.916 558.468C342.442 558.053 342.394 557.333 342.806 556.855L370.44 525.156C370.855 524.682 371.575 524.633 372.052 525.045C372.526 525.46 372.575 526.18 372.163 526.658L344.528 558.357C344.304 558.617 343.985 558.748 343.667 558.748Z" fill="white"/>
<path d="M349.648 571.201C349.379 571.201 349.105 571.104 348.887 570.91C348.417 570.491 348.375 569.768 348.797 569.297L368.745 546.939C369.164 546.469 369.887 546.427 370.357 546.849C370.828 547.268 370.869 547.991 370.447 548.462L350.499 570.82C350.275 571.073 349.96 571.201 349.648 571.201Z" fill="white"/>
<path d="M249.285 443.116L354.499 316.768C355.474 315.599 357.29 315.609 358.249 316.793L460.505 443.144C461.169 443.967 460.577 445.186 459.512 445.186H448.936L356.391 328.408L258.3 445.604H250.475C249.174 445.604 248.458 444.106 249.285 443.113V443.116Z" fill="#1B61B5"/>
<path d="M258.297 446.75H250.471C249.416 446.75 248.485 446.158 248.039 445.21C247.6 444.268 247.738 443.185 248.406 442.386L353.62 316.038C354.298 315.225 355.294 314.758 356.36 314.758H356.384C357.457 314.765 358.46 315.246 359.131 316.076L461.387 442.427C461.972 443.151 462.086 444.12 461.688 444.957C461.283 445.802 460.449 446.328 459.509 446.328H448.933C448.583 446.328 448.255 446.169 448.037 445.895L356.36 330.218L259.168 446.342C258.951 446.601 258.632 446.75 258.293 446.75H258.297ZM356.36 317.042C355.976 317.042 355.616 317.208 355.374 317.502L250.16 443.85C250.035 443.999 250.063 444.147 250.108 444.241C250.146 444.324 250.246 444.466 250.471 444.466H257.764L355.512 327.678C355.734 327.415 356.066 327.276 356.405 327.269C356.747 327.273 357.069 327.432 357.284 327.702L449.486 444.047H459.512C459.54 444.047 459.598 444.047 459.633 443.974C459.661 443.915 459.637 443.888 459.619 443.864L357.363 317.513C357.121 317.215 356.761 317.042 356.374 317.038H356.363L356.36 317.042Z" fill="#1A1A1A"/>
<path d="M354.858 400.822C328.441 400.822 307.024 422.25 307.024 448.678V459.31H402.693V448.678C402.693 422.25 381.275 400.822 354.858 400.822Z" fill="#6C6C6C"/>
<path d="M339.522 449.086C339.246 449.086 338.969 448.986 338.751 448.785C338.287 448.359 338.256 447.636 338.685 447.172L372.792 410.077C373.218 409.613 373.941 409.582 374.405 410.011C374.868 410.437 374.899 411.16 374.47 411.624L340.363 448.719C340.138 448.965 339.83 449.09 339.522 449.09V449.086Z" fill="white"/>
<path d="M358.712 449.086C358.442 449.086 358.169 448.989 357.951 448.795C357.481 448.377 357.439 447.653 357.861 447.183L376.629 426.147C377.048 425.676 377.771 425.634 378.241 426.057C378.712 426.475 378.753 427.199 378.331 427.669L359.563 448.705C359.338 448.958 359.024 449.086 358.712 449.086Z" fill="white"/>
<path d="M29.9692 580.103L31.7543 597.127L43.2607 598.474V578.293L29.9692 580.103Z" fill="white"/>
<path d="M43.2607 599.616C43.2157 599.616 43.1707 599.616 43.1292 599.609L31.6264 598.259C31.0971 598.197 30.6784 597.775 30.6231 597.245L28.838 580.224C28.7757 579.611 29.2082 579.057 29.8205 578.974L43.1119 577.164C43.4371 577.119 43.7692 577.22 44.0148 577.434C44.2639 577.652 44.4058 577.964 44.4058 578.296V598.481C44.4058 598.806 44.2674 599.117 44.0218 599.335C43.8107 599.522 43.5409 599.623 43.2641 599.623L43.2607 599.616ZM32.7957 596.096L42.119 597.19V579.597L31.2216 581.082L32.7957 596.096Z" fill="#1A1A1A"/>
<path d="M45.0735 628.11C40.2786 628.785 32.4151 629.38 23.1852 628.1C20.1616 627.681 18.1551 624.746 18.885 621.78C20.9157 613.515 24.4202 597.84 30.4294 590.576L31.9239 594.514L33.9858 590.804C34.2694 590.295 34.7745 589.953 35.3523 589.88L39.8704 589.309C40.8148 589.188 41.6901 589.814 41.8873 590.745L42.6069 594.165L44.1809 589.676L49.4359 622.351C49.8026 625.141 47.8653 627.719 45.0769 628.114L45.0735 628.11Z" fill="#1B61B5"/>
<path d="M34.1968 629.997C30.8134 629.997 27.0494 629.789 23.0295 629.232C21.2617 628.986 19.6772 627.999 18.6774 626.525C17.6811 625.058 17.3559 623.227 17.778 621.507L18.2104 619.731C20.293 611.162 23.7802 596.823 29.5507 589.849C29.8101 589.534 30.2149 589.385 30.6162 589.451C31.0175 589.517 31.3531 589.793 31.4949 590.171L32.1176 591.811L32.9859 590.25C33.4426 589.427 34.2729 588.866 35.2069 588.748L39.7216 588.177C41.0674 588.008 42.3508 588.79 42.849 590.015L43.0981 589.302C43.2711 588.811 43.7519 588.499 44.2778 588.544C44.7967 588.592 45.2188 588.984 45.3018 589.499L50.5568 622.171C51.01 625.608 48.6195 628.768 45.2291 629.245C42.3923 629.643 38.618 630 34.1933 630L34.1968 629.997ZM30.1007 592.929C25.3612 599.976 22.3099 612.532 20.4279 620.271L19.992 622.053C19.7187 623.164 19.9228 624.3 20.5629 625.245C21.1994 626.186 22.213 626.812 23.3408 626.968C32.3563 628.214 40.0503 627.66 44.9109 626.979C47.0627 626.677 48.5814 624.667 48.2977 622.496L43.7623 594.3L43.6793 594.542C43.5098 595.026 43.0324 595.331 42.5273 595.303C42.0153 595.269 41.5897 594.902 41.486 594.4L40.7664 590.981C40.6937 590.634 40.3651 590.399 40.0087 590.444L35.4941 591.015C35.2796 591.043 35.0859 591.171 34.9821 591.361L32.9202 595.071C32.7023 595.459 32.2733 595.688 31.8408 595.656C31.398 595.625 31.014 595.338 30.8549 594.923L30.1007 592.933V592.929Z" fill="#1A1A1A"/>
<path d="M31.7404 624.518C28.6407 624.518 25.2884 624.244 21.9431 623.483C21.3273 623.341 20.9433 622.732 21.0817 622.116C21.2235 621.5 21.8324 621.116 22.4482 621.254C33.5913 623.794 45.2844 620.527 45.402 620.493C46.0109 620.319 46.6405 620.673 46.8135 621.278C46.9865 621.884 46.637 622.517 46.0282 622.69C45.6718 622.791 39.507 624.518 31.737 624.518H31.7404Z" fill="white"/>
<path d="M28.9972 611.861C28.3849 611.861 27.8764 611.373 27.8556 610.757C27.8349 610.127 28.3296 609.597 28.9592 609.577L39.7425 609.22C39.7425 609.22 39.7702 609.22 39.7805 609.22C40.3929 609.22 40.9014 609.708 40.9222 610.324C40.9429 610.954 40.4482 611.484 39.8186 611.504L29.0353 611.861C29.0353 611.861 29.0076 611.861 28.9972 611.861Z" fill="white"/>
<path d="M83.8579 571.038L85.5807 595.881H99.4257L100.069 571.038H83.8579Z" fill="white"/>
<path d="M99.4258 597.023H85.5808C84.9823 597.023 84.4842 596.56 84.4427 595.961L82.7198 571.118C82.6991 570.803 82.8063 570.491 83.0243 570.26C83.2387 570.028 83.5432 569.896 83.858 569.896H100.069C100.377 569.896 100.671 570.021 100.886 570.242C101.1 570.464 101.218 570.761 101.207 571.069L100.564 595.913C100.547 596.532 100.042 597.023 99.4223 597.023H99.4258ZM86.6464 594.739H98.3118L98.8965 572.18H85.0792L86.6464 594.739Z" fill="#1A1A1A"/>
<path d="M81.9656 609.905C81.931 612.255 83.5362 614.318 85.823 614.851C93.7833 616.703 111.71 620.832 116.824 621.593C123.462 622.583 131.62 620.548 135.124 616.665C138.632 612.781 127.271 603.506 121.881 600.131C113.873 595.12 106.179 585.211 102.951 584.768C99.7233 584.322 93.7003 593.687 93.7003 593.687L83.8545 589.551C83.8545 589.551 82.1386 597.993 81.9622 609.909L81.9656 609.905Z" fill="#1B61B5"/>
<path d="M120.276 622.981C119.052 622.981 117.837 622.898 116.658 622.721C111.672 621.981 95.0391 618.17 85.5635 615.966C82.7717 615.315 80.779 612.761 80.824 609.891C81.0004 598.003 82.7233 589.409 82.7406 589.323C82.8097 588.987 83.0242 588.7 83.3252 588.541C83.6297 588.381 83.986 588.364 84.3008 588.499L93.2713 592.268C95.2259 589.354 99.7856 583.183 103.11 583.64C104.999 583.903 107.383 586.09 111.437 589.935C114.793 593.119 118.591 596.729 122.49 599.166C125.984 601.353 136.124 608.819 136.885 614.259C137.058 615.488 136.743 616.585 135.979 617.433C132.931 620.808 126.503 622.984 120.283 622.984L120.276 622.981ZM84.7298 591.15C84.2524 593.995 83.2387 601.007 83.1073 609.919C83.0796 611.722 84.3319 613.328 86.0824 613.737C93.683 615.505 111.904 619.703 116.993 620.461C123.397 621.417 131.146 619.368 134.28 615.896C134.474 615.678 134.723 615.308 134.623 614.571C134.111 610.909 126.545 604.395 121.279 601.101C117.187 598.539 113.298 594.847 109.867 591.59C107.009 588.876 104.055 586.073 102.799 585.9C101.304 585.675 97.3812 590.077 94.6655 594.303C94.3645 594.77 93.7729 594.954 93.2644 594.739L84.7332 591.154L84.7298 591.15Z" fill="#1A1A1A"/>
<path d="M120.162 618.406C105.618 618.406 86.245 610.577 85.1484 610.127C84.5637 609.888 84.2835 609.22 84.5222 608.639C84.7609 608.057 85.4251 607.773 86.0098 608.012C86.3592 608.154 121.134 622.213 131.226 613.096C131.693 612.674 132.416 612.709 132.838 613.179C133.26 613.647 133.225 614.37 132.755 614.792C129.842 617.423 125.299 618.402 120.159 618.402L120.162 618.406Z" fill="white"/>
<path d="M104.812 603.378C104.501 603.378 104.189 603.25 103.965 603.001C103.543 602.533 103.581 601.81 104.048 601.388L111.088 595.033C111.555 594.611 112.278 594.649 112.7 595.116C113.122 595.584 113.084 596.307 112.617 596.729L105.577 603.084C105.359 603.281 105.085 603.378 104.812 603.378Z" fill="white"/>
<path d="M26.0427 409.094C26.0427 409.094 21.7529 486.752 19.5076 513.558C17.2624 540.367 24.7557 583.456 24.7557 583.456L46.1251 582.332C46.1251 582.332 47.5885 529.939 49.1764 515.389C49.1764 515.389 58.2022 495.664 60.8764 478.072C63.5506 460.48 72.663 432.695 72.663 432.695C72.663 432.695 80.0629 571.381 80.7755 582.28C80.7755 582.28 97.5334 583.027 103.539 579.244C103.539 579.244 114.184 528.676 112.655 501.161C111.126 473.646 112.804 405.287 112.804 405.287L26.0323 409.091L26.0427 409.094Z" fill="#1A1A1A"/>
<path d="M45.243 516.531H38.7115C38.0818 516.531 37.5698 516.019 37.5698 515.389C37.5698 514.759 38.0818 514.247 38.7115 514.247H45.243C45.8726 514.247 46.3847 514.759 46.3847 515.389C46.3847 516.019 45.8726 516.531 45.243 516.531Z" fill="white"/>
<path d="M91.7734 556.865H91.7526C91.123 556.855 90.6214 556.332 90.6317 555.703C90.8705 542.751 104.999 519.656 105.601 518.68C105.93 518.144 106.635 517.978 107.172 518.306C107.708 518.639 107.874 519.341 107.545 519.878C107.4 520.11 93.1399 543.416 92.915 555.744C92.9046 556.367 92.3961 556.865 91.7734 556.865Z" fill="white"/>
<path d="M119.578 284.896C121.134 284.775 128.769 300.419 152.664 299.765C176.559 299.11 195.732 272.357 195.732 272.357C195.732 272.357 203.986 258.437 210.248 253.401C216.509 248.369 217.492 247.704 217.492 247.704C217.492 247.704 219.453 250.321 217.492 253.401C215.53 256.481 210.106 262.244 210.106 262.244C210.106 262.244 216.077 265.525 213.386 272.357C210.289 280.217 201.557 279.583 201.557 279.583C201.557 279.583 183.841 358.058 110.621 320.766L119.578 284.896Z" fill="white"/>
<path d="M146.932 331.966C135.733 331.966 123.421 328.571 110.102 321.787C109.628 321.545 109.382 321.008 109.514 320.493L118.47 284.623C118.588 284.145 119 283.799 119.487 283.761C120.366 283.681 120.965 284.353 122.262 285.803C125.836 289.79 134.194 299.1 152.63 298.626C175.272 298.006 193.95 272.855 194.773 271.734C195.393 270.696 203.297 257.526 209.528 252.518C215.755 247.514 216.807 246.794 216.848 246.766C217.35 246.424 218.035 246.538 218.402 247.026C218.502 247.157 220.813 250.317 218.45 254.024C216.924 256.415 213.486 260.261 211.839 262.06C214.07 263.877 216.489 267.598 214.444 272.786C211.718 279.701 204.968 280.632 202.443 280.733C200.98 286.263 192.075 316.042 167.796 327.439C161.361 330.464 154.39 331.973 146.925 331.973L146.932 331.966ZM111.949 320.16C133.139 330.761 151.595 332.516 166.82 325.369C192.483 313.325 200.367 279.67 200.443 279.331C200.568 278.781 201.063 278.407 201.64 278.445C201.962 278.466 209.58 278.898 212.323 271.938C214.603 266.155 209.76 263.358 209.552 263.244C209.244 263.071 209.033 262.766 208.981 262.42C208.93 262.074 209.033 261.718 209.276 261.462C209.327 261.406 214.645 255.741 216.53 252.788C217.371 251.466 217.302 250.265 217.066 249.452C216.087 250.206 214.264 251.639 210.96 254.29C204.93 259.136 196.794 272.8 196.711 272.938C196.693 272.966 196.676 272.994 196.655 273.021C195.86 274.132 176.877 300.242 152.692 300.903C152.183 300.917 151.678 300.924 151.183 300.924C132.748 300.924 124.244 291.437 120.56 287.322C120.453 287.205 120.342 287.08 120.235 286.959L111.946 320.157L111.949 320.16Z" fill="#1A1A1A"/>
<path d="M1.14478 320.766C1.14478 320.766 8.31633 274.461 33.6503 263.068C58.9843 251.674 93.2576 253.259 102.709 258.949C112.16 264.639 136.796 290.361 136.796 290.361L115.028 320.763C115.028 320.763 120.003 402.605 116.07 424.212C116.07 424.212 91.853 427.036 81.5818 422.99C71.3105 418.944 37.5388 413.275 21.3967 420.692L24.3304 317.077L1.14478 320.763V320.766Z" fill="#5479F7"/>
<path d="M99.0003 426.327C92.5068 426.327 85.6258 425.818 81.1596 424.06C70.577 419.889 37.2031 414.691 21.8706 421.737C21.5143 421.904 21.0957 421.869 20.7635 421.651C20.4349 421.433 20.2412 421.059 20.2515 420.664L23.1471 318.426L1.32111 321.898C0.96132 321.957 0.594612 321.835 0.335149 321.579C0.075686 321.323 -0.0419372 320.956 0.0134149 320.596C0.310933 318.679 7.57244 273.547 33.1797 262.033C58.2819 250.746 93.0188 251.792 103.297 257.976C112.769 263.68 136.609 288.523 137.619 289.579C137.999 289.977 138.041 290.589 137.723 291.032L116.191 321.105C116.609 328.062 121.003 403.481 117.19 424.423C117.1 424.918 116.699 425.295 116.201 425.354C115.63 425.42 107.666 426.33 99.0038 426.33L99.0003 426.327ZM43.3299 415.947C58.7282 415.947 75.3373 419.308 81.9968 421.931C90.822 425.41 110.738 423.617 115.087 423.17C118.685 400.736 113.935 321.642 113.887 320.835C113.869 320.572 113.945 320.313 114.098 320.101L135.311 290.472C131.34 286.364 110.479 264.964 102.117 259.928C93.299 254.619 59.3232 252.775 34.1138 264.109C12.2151 273.956 4.07142 311.283 2.54577 319.385L24.1469 315.948C24.4825 315.893 24.825 315.993 25.081 316.218C25.337 316.443 25.4788 316.769 25.4685 317.108L22.5867 418.955C28.2776 416.778 35.6533 415.94 43.3299 415.94V415.947Z" fill="#1A1A1A"/>
<path d="M43.6481 400.487C43.1049 400.487 42.6241 400.096 42.5237 399.542C42.413 398.922 42.8282 398.327 43.4509 398.22C81.6577 391.464 92.825 365.039 92.9322 364.773C93.1709 364.191 93.8351 363.904 94.4198 364.146C95.0045 364.382 95.2847 365.046 95.0494 365.631C94.9387 365.908 83.3597 393.485 43.8487 400.469C43.783 400.48 43.7138 400.487 43.6481 400.487Z" fill="#1A1A1A"/>
<path d="M113.195 353.133H63.8933L79.3366 298.041H128.635L113.195 353.133Z" fill="#1A1A1A"/>
<path d="M5.48985 320.946L30.4398 309.788C30.4398 309.788 26.925 352.081 77.4061 332.551C77.4061 332.551 75.5449 327.117 75.8078 320.766C76.0707 314.419 79.8658 320.562 80.3986 325.719C80.9313 330.879 92.7801 328.785 99.9032 326.75C107.026 324.715 116.374 326.047 99.9032 335.136C83.4325 344.225 79.8243 340.172 79.8243 340.172C79.8243 340.172 58.7905 369.618 32.6193 363.361C0.428593 355.667 5.48985 320.943 5.48985 320.943V320.946Z" fill="white"/>
<path d="M40.1022 365.392C37.5837 365.392 34.9994 365.108 32.3564 364.475C-0.470887 356.629 4.31015 321.136 4.36205 320.78C4.4174 320.392 4.66994 320.06 5.02627 319.901L29.9762 308.742C30.3429 308.576 30.7719 308.618 31.1006 308.853C31.4292 309.085 31.6126 309.476 31.578 309.878C31.5641 310.03 30.4536 325.123 40.2925 332.478C47.8619 338.133 59.8767 337.926 76.005 331.859C75.4653 329.931 74.462 325.608 74.6661 320.714C74.7042 319.79 74.8218 316.976 76.7834 316.914C76.8007 316.914 76.8179 316.914 76.8352 316.914C79.333 316.914 81.2219 322.548 81.5333 325.598C81.5921 326.151 81.8481 326.563 82.3393 326.899C84.972 328.681 92.9012 327.556 99.5884 325.649C102.692 324.763 108.867 323.843 110.047 326.698C111.008 329.031 108.05 331.942 100.453 336.133C87.8192 343.107 82.2736 342.57 80.1252 341.674C76.7626 346.069 60.8108 365.385 40.1022 365.385V365.392ZM6.55191 321.721C6.33742 323.839 5.83925 331.156 8.10523 339.026C11.6581 351.358 19.9956 359.169 32.8891 362.253C58.0294 368.265 78.693 339.798 78.9006 339.511C79.1012 339.227 79.423 339.054 79.7689 339.033C80.1149 339.012 80.4504 339.154 80.6822 339.414C80.6822 339.414 84.377 342.408 99.3566 334.139C108.033 329.349 107.94 327.577 107.936 327.556C107.587 327.02 104.297 326.684 100.222 327.847C96.8277 328.816 85.4252 331.744 81.0662 328.792C80.0145 328.083 79.3953 327.058 79.2673 325.833C78.994 323.182 77.8489 320.579 77.0809 319.572C77.029 319.845 76.9736 320.24 76.9529 320.811C76.7003 326.875 78.4716 332.125 78.4889 332.177C78.6895 332.758 78.392 333.392 77.8212 333.613C60.3991 340.352 47.3118 340.58 38.9191 334.299C30.1423 327.73 29.2394 316.121 29.2463 311.574L6.55537 321.721H6.55191Z" fill="#1A1A1A"/>
<path d="M72.0889 241.966C69.9336 243.939 65.7199 246.351 62.423 244.69C59.9668 243.454 58.5968 240.249 58.6833 236.577C57.5486 236.67 56.0575 236.591 54.992 235.649C53.3557 234.203 53.6601 231.538 53.7258 229.787C54.0199 221.709 49.3288 220.466 50.4774 214.984C51.3803 210.675 54.7637 208.107 55.3968 207.626C58.5899 205.203 60.7556 205.985 66.1247 204.577C75.1609 202.209 75.4481 198.312 81.4019 198.295C81.7478 198.295 89.85 198.385 92.6003 203.985C94.8352 208.539 92.2232 214.074 89.5248 216.984C86.0272 220.75 83.5156 218.888 80.0077 222.048C73.8463 227.592 78.4994 236.103 72.0958 241.966H72.0889Z" fill="#1A1A1A"/>
<path d="M90.1232 227.551L89.7668 227.243C87.9783 225.703 86.1171 223.91 85.6431 221.598C83.6262 211.762 74.6211 208.193 74.206 217.223C74.1022 219.504 65.7821 219.383 66.768 221.778C69.3419 228.014 69.3973 226.336 65.7648 228.634C65.3531 228.651 64.9449 228.741 64.5609 228.921C62.6997 229.79 62.0389 232.32 63.0871 234.573C63.7237 235.94 64.8446 236.882 66.045 237.224V247.078C66.045 250.771 63.8136 254.097 60.3956 255.495L57.071 256.855C57.071 256.855 72.5766 266.982 88.3173 255.865L86.2174 254.924C82.5192 253.263 80.0906 249.639 79.9626 245.583L79.9453 243.658C81.0039 243.752 82.0279 243.679 82.9758 243.406C87.3798 242.125 88.8397 237.051 88.0924 230.742L89.8845 229.78C90.7217 229.33 90.8462 228.181 90.1266 227.561L90.1232 227.551Z" fill="white"/>
<path d="M72.4106 262.178C63.2948 262.178 56.5487 257.876 56.445 257.81C56.0886 257.578 55.8914 257.17 55.933 256.744C55.9745 256.322 56.2443 255.955 56.6387 255.796L59.9633 254.436C62.9661 253.207 64.9035 250.317 64.9035 247.074V238.006C63.6892 237.425 62.6755 236.387 62.0528 235.054C60.7382 232.233 61.6481 229.018 64.0766 227.886C64.4883 227.693 64.9311 227.571 65.3982 227.516C65.969 227.167 66.436 226.914 66.8235 226.71C67.0449 226.592 67.2871 226.464 67.4358 226.367C67.339 226.007 67.0172 225.263 66.6782 224.481C66.4118 223.868 66.0901 223.124 65.713 222.214C65.4777 221.646 65.4881 221.068 65.7441 220.549C66.3426 219.324 68.0482 218.843 70.0235 218.289C70.9818 218.019 72.7496 217.524 73.0679 217.116C73.3412 211.651 76.4928 210.979 77.458 210.903C80.8483 210.647 85.3664 214.565 86.7641 221.369C87.1723 223.359 88.9159 225 90.5142 226.381L90.8705 226.689C91.4932 227.225 91.8115 228.035 91.7216 228.852C91.6316 229.669 91.1473 230.389 90.4208 230.776L89.3034 231.379C89.9538 238.425 87.7846 243.188 83.2907 244.496C82.6023 244.697 81.8689 244.807 81.094 244.828L81.1009 245.569C81.2116 249.134 83.4049 252.408 86.6811 253.875L88.781 254.82C89.1546 254.986 89.4106 255.343 89.4487 255.751C89.4867 256.159 89.3068 256.557 88.9713 256.793C83.2112 260.863 77.4476 262.175 72.4106 262.178ZM59.7107 257.007C64.0524 259.122 74.7285 262.898 85.9476 256.052L85.747 255.962C81.6786 254.138 78.9594 250.075 78.8176 245.617L78.8003 243.665C78.8003 243.343 78.9318 243.035 79.167 242.814C79.4023 242.596 79.724 242.492 80.0423 242.516C81.0005 242.603 81.8758 242.53 82.6507 242.305C87.5874 240.869 87.3038 233.832 86.9509 230.873C86.8955 230.406 87.1308 229.956 87.5425 229.731L89.3345 228.769C89.4141 228.724 89.4383 228.655 89.4452 228.606C89.4521 228.554 89.4452 228.482 89.3725 228.423L89.0162 228.115C87.1308 226.488 85.0724 224.526 84.5189 221.833C83.3253 216.008 79.6721 213.004 77.6275 213.184C75.7248 213.333 75.3927 216.098 75.3373 217.282C75.2508 219.199 72.9018 219.857 70.6289 220.494C69.7468 220.743 68.318 221.141 67.8717 221.484C68.2177 222.321 68.5152 223.006 68.7643 223.577C69.9993 226.422 70.4145 227.381 67.8925 228.731C67.4843 228.949 66.9792 229.219 66.3703 229.607C66.2008 229.714 66.007 229.776 65.8064 229.783C65.5262 229.793 65.2667 229.856 65.0349 229.963C63.7445 230.565 63.3328 232.417 64.1147 234.095C64.5852 235.103 65.4224 235.864 66.3495 236.131C66.8408 236.269 67.1798 236.719 67.1798 237.228V247.081C67.1798 251.255 64.682 254.976 60.8178 256.557L59.7038 257.014L59.7107 257.007Z" fill="#1A1A1A"/>
<path d="M79.9455 244.793C79.8867 244.793 79.8279 244.79 79.7725 244.78C73.196 243.772 70.2277 238.73 70.1032 238.515C69.7884 237.968 69.9786 237.269 70.5252 236.954C71.0718 236.643 71.7672 236.826 72.082 237.373C72.1858 237.55 74.6594 241.685 80.1185 242.523C80.7412 242.62 81.1701 243.201 81.0733 243.824C80.9868 244.388 80.499 244.793 79.9455 244.793Z" fill="#1A1A1A"/>
<path d="M495.863 295.139C507.296 284.669 508.341 267.201 498.199 256.124C488.057 245.046 470.568 244.553 459.135 255.023C447.703 265.493 446.657 282.961 456.799 294.039C466.941 305.116 484.431 305.609 495.863 295.139Z" fill="white"/>
<path d="M477.758 304.264C466.967 304.264 456.478 298.619 451.009 288.738C446.252 280.137 446.193 269.872 450.853 261.275C451.154 260.721 451.846 260.517 452.399 260.814C452.953 261.116 453.161 261.808 452.86 262.361C448.573 270.27 448.629 279.715 453.008 287.63C460.284 300.779 477.187 305.807 490.693 298.851C497.273 295.459 502.057 289.769 504.164 282.833C506.236 276.008 505.454 268.778 501.967 262.472C494.695 249.324 477.789 244.292 464.283 251.252C463.722 251.542 463.034 251.321 462.743 250.76C462.453 250.2 462.674 249.511 463.235 249.22C477.823 241.696 496.097 247.147 503.963 261.365C507.752 268.214 508.599 276.074 506.347 283.494C504.06 291.026 498.875 297.2 491.741 300.879C487.292 303.174 482.497 304.26 477.761 304.26L477.758 304.264Z" fill="#1A1A1A"/>
<path d="M471.569 290.735L472.461 286.983C469.856 286.319 467.472 285.08 466.186 283.903L468.465 279.528C469.901 280.778 472.022 282.086 474.575 282.615C476.813 283.079 478.553 282.529 478.93 280.947C479.287 279.448 478.256 278.237 475.582 276.649C471.714 274.357 469.316 271.789 470.23 267.958C471.057 264.483 474.142 262.265 478.546 262.306L479.439 258.554L483.289 259.35L482.462 262.825C485.068 263.49 486.704 264.407 487.849 265.307L485.645 269.533C484.729 268.886 483.137 267.605 480.307 267.02C477.754 266.49 476.664 267.425 476.401 268.532C476.09 269.834 477.27 270.948 480.307 272.904C484.59 275.531 485.957 278.092 485.112 281.646C484.275 285.159 481.086 287.648 476.377 287.502L475.419 291.531L471.569 290.735Z" fill="#34A853"/>
<path d="M566.5 284.347C569.277 273.614 563.103 262.733 552.71 260.043C542.316 257.352 531.639 263.872 528.862 274.605C526.084 285.337 532.259 296.219 542.652 298.909C553.046 301.599 563.723 295.08 566.5 284.347Z" fill="white"/>
<path d="M547.373 301.308C544.457 301.308 541.554 300.682 538.825 299.436C533.625 297.062 529.685 292.728 527.73 287.239C523.734 276.015 529.415 263.396 540.399 259.108C547.045 256.516 554.438 257.464 560.177 261.652C560.685 262.022 560.8 262.739 560.426 263.248C560.052 263.756 559.34 263.867 558.831 263.497C553.728 259.773 547.148 258.925 541.229 261.237C531.387 265.078 526.294 276.399 529.882 286.471C531.629 291.375 535.14 295.241 539.773 297.356C544.329 299.439 549.435 299.571 554.15 297.73C563.993 293.888 569.082 282.567 565.498 272.492C565.287 271.897 565.594 271.246 566.189 271.031C566.781 270.82 567.435 271.128 567.649 271.724C571.645 282.948 565.965 295.566 554.981 299.855C552.507 300.82 549.933 301.301 547.373 301.301V301.308Z" fill="#1A1A1A"/>
<path d="M550.241 291.192L549.318 288.596C547.498 289.212 545.585 289.399 544.353 289.195L544.018 285.682C545.363 285.872 547.145 285.831 548.882 285.152C550.404 284.557 551.234 283.55 550.843 282.456C550.473 281.418 549.383 281.096 547.162 281.182C543.952 281.314 541.513 280.708 540.568 278.057C539.711 275.652 540.696 273.118 543.353 271.429L542.43 268.834L545.049 267.813L545.906 270.218C547.726 269.602 549.065 269.515 550.103 269.605L550.428 272.997C549.625 272.966 548.172 272.821 546.249 273.572C544.512 274.25 544.222 275.233 544.495 276.001C544.817 276.905 545.955 277.112 548.539 277.098C552.13 277.005 553.946 278.009 554.825 280.469C555.69 282.903 554.745 285.637 551.867 287.385L552.86 290.174L550.241 291.195V291.192Z" fill="#34A853"/>
<path d="M577.207 355.957C579.072 343.923 571.137 332.703 559.483 330.896C547.83 329.09 536.871 337.381 535.006 349.415C533.141 361.449 541.077 372.669 552.73 374.476C564.383 376.282 575.342 367.991 577.207 355.957Z" fill="white"/>
<path d="M555.911 376.571C553.462 376.571 551.009 376.166 548.625 375.356C542.713 373.339 537.956 369.054 535.234 363.295C529.667 351.517 534.48 337.171 545.962 331.315C552.908 327.771 561.056 327.999 567.75 331.931C568.293 332.25 568.476 332.952 568.158 333.496C567.84 334.039 567.137 334.219 566.594 333.904C560.575 330.37 553.251 330.163 547 333.35C536.607 338.652 532.255 351.649 537.299 362.319C539.755 367.517 544.042 371.38 549.362 373.197C554.597 374.986 560.225 374.571 565.203 372.03C575.596 366.728 579.948 353.732 574.904 343.062C574.634 342.491 574.876 341.809 575.447 341.539C576.018 341.272 576.699 341.515 576.969 342.082C582.536 353.86 577.723 368.206 566.241 374.062C562.972 375.73 559.447 376.575 555.911 376.575V376.571Z" fill="#1A1A1A"/>
<path d="M560.173 365.202L558.88 362.464C556.956 363.336 554.887 363.748 553.521 363.658L552.77 359.858C554.261 359.92 556.205 359.678 558.032 358.747C559.634 357.93 560.429 356.74 559.883 355.584C559.364 354.49 558.139 354.255 555.721 354.594C552.227 355.089 549.494 354.694 548.176 351.898C546.979 349.361 547.778 346.485 550.497 344.349L549.203 341.612L551.954 340.206L553.151 342.743C555.074 341.871 556.527 341.629 557.672 341.619L558.399 345.291C557.52 345.346 555.915 345.343 553.891 346.374C552.064 347.305 551.857 348.413 552.237 349.219C552.687 350.171 553.957 350.275 556.78 349.977C560.692 349.482 562.789 350.382 564.017 352.974C565.228 355.539 564.494 358.633 561.54 360.855L562.931 363.793L560.18 365.198L560.173 365.202Z" fill="#34A853"/>
<path d="M457.43 79.3366L479.003 67.8045C496.557 58.4217 512.796 46.8066 527.325 33.2429L528.076 26.4836C528.076 26.4836 535.576 26.3382 537.178 26.1998C539.223 26.0198 541.34 26.6774 542.987 28.1656C560.26 43.8059 579.692 56.8643 600.657 66.922L615.488 74.0378C618.933 75.6921 620.324 78.7482 619.532 83.2233L604.6 163.692C597.484 186.292 565.847 217.202 547.975 233.334C544.723 236.269 540.648 237.778 536.521 237.875C534.691 237.92 527.125 238.387 527.125 238.387C527.125 238.387 525.36 235.238 523.133 233.144C505.534 216.607 474.509 184.693 467.265 159.04L453.832 87.9233C452.873 84.5316 454.368 80.9736 457.433 79.3331L457.43 79.3366Z" fill="#1B61B5"/>
<path d="M449.075 80.0184L470.479 68.5763C487.897 59.2662 504.008 47.7411 518.424 34.2847L523.835 29.2351C526.651 26.6082 531.051 26.6116 533.961 29.2489C551.099 44.7681 570.379 57.7226 591.181 67.7007L605.898 74.7611C609.316 76.4017 611.035 80.3022 609.911 83.874L595.097 163.716C588.036 186.14 556.306 217.102 538.572 233.106C531.705 239.304 521.136 239.09 514.262 232.631C496.799 216.226 466.016 184.558 458.831 159.102L445.501 88.5394C444.55 85.1753 446.03 81.6451 449.075 80.0184Z" fill="white"/>
<path d="M463.02 89.0274L480.743 79.5546C495.166 71.847 508.506 62.305 520.441 51.1605L524.921 46.9796C527.253 44.8027 530.896 44.8096 533.307 46.99C547.498 59.8373 563.46 70.5664 580.685 78.8278L592.869 84.6735C595.699 86.0302 597.124 89.2627 596.194 92.2184L583.926 158.327C578.08 176.895 551.808 202.528 537.126 215.78C531.442 220.912 522.69 220.733 516.999 215.385C502.541 201.801 477.052 175.58 471.101 154.506L460.066 96.0809C459.28 93.2948 460.505 90.3703 463.023 89.0239L463.02 89.0274Z" fill="#95C5FF"/>
<path d="M526.782 238.723C522.008 238.723 517.203 236.965 513.48 233.466C510.242 230.351 507.101 227.059 504.064 223.875L502.974 222.733C497.577 217.088 472.703 187.85 468.898 182.225C463.958 174.923 459.18 167.094 457.706 159.317C457.668 159.127 444.778 90.8756 444.384 88.799C443.311 84.9123 445.01 80.8906 448.532 79.0112L469.936 67.5692C487.254 58.311 503.306 46.8343 517.639 33.4506L523.049 28.401C526.27 25.3933 531.397 25.3933 534.722 28.401C551.791 43.8578 570.953 56.7328 591.669 66.6728L606.386 73.7332C610.281 75.6022 612.263 80.0703 611.018 84.1508L596.215 163.927C596.208 163.972 596.194 164.017 596.18 164.062C589.071 186.649 557.51 217.548 539.33 233.957C535.805 237.141 531.304 238.723 526.775 238.723H526.782ZM504.624 221.155L505.717 222.297C508.737 225.46 511.858 228.734 515.055 231.808C521.441 237.806 531.439 238.01 537.808 232.258C555.797 216.019 586.998 185.503 593.987 163.436L608.79 83.6628C608.797 83.6178 608.811 83.5729 608.824 83.5279C609.776 80.5064 608.306 77.1804 605.406 75.7891L590.69 68.7286C569.774 58.6951 550.431 45.6956 533.196 30.0934C530.747 27.8749 526.976 27.8645 524.613 30.0692L519.202 35.1188C504.724 48.6375 488.51 60.2318 471.018 69.5835L449.614 81.0255C447.034 82.4065 445.795 85.3656 446.601 88.2279C446.612 88.2591 446.619 88.2937 446.625 88.3248C458.177 149.477 459.734 157.711 459.941 158.891H459.955C461.353 166.26 465.988 173.846 470.794 180.941C474.561 186.51 499.265 215.538 504.628 221.151L504.624 221.155Z" fill="#1A1A1A"/>
<path d="M549.881 140.819C560.51 130.084 560.254 112.594 549.309 101.753C538.363 90.9129 520.874 90.8275 510.245 101.563C499.616 112.298 499.872 129.788 510.817 140.628C521.763 151.469 539.252 151.554 549.881 140.819Z" fill="white"/>
<path d="M521.796 111.305L518.813 108.322C518.401 107.91 517.733 107.91 517.321 108.322C516.909 108.734 516.909 109.402 517.321 109.813L520.304 112.796C520.716 113.208 521.384 113.208 521.796 112.796C522.208 112.384 522.208 111.717 521.796 111.305Z" fill="#1B61B5"/>
<path d="M517.343 119.945H513.054C512.471 119.945 511.999 120.417 511.999 121C511.999 121.583 512.471 122.055 513.054 122.055H517.343C517.926 122.055 518.398 121.583 518.398 121C518.398 120.417 517.926 119.945 517.343 119.945Z" fill="#1B61B5"/>
<path d="M546.945 119.945H542.656C542.073 119.945 541.601 120.417 541.601 121C541.601 121.583 542.073 122.055 542.656 122.055H546.945C547.528 122.055 547.999 121.583 547.999 121C547.999 120.417 547.528 119.945 546.945 119.945Z" fill="#1B61B5"/>
<path d="M542.677 108.322C542.265 107.91 541.598 107.91 541.186 108.322L538.203 111.305C537.791 111.717 537.791 112.384 538.203 112.796C538.615 113.208 539.282 113.208 539.694 112.796L542.677 109.813C543.089 109.402 543.089 108.734 542.677 108.322Z" fill="#1B61B5"/>
<path d="M529.999 103C529.416 103 528.945 103.472 528.945 104.055V108.344C528.945 108.927 529.416 109.398 529.999 109.398C530.582 109.398 531.054 108.927 531.054 108.344V104.055C531.054 103.472 530.582 103 529.999 103Z" fill="#1B61B5"/>
<path d="M535.906 113.554C533.606 111.74 530.632 111.086 527.721 111.782C524.346 112.562 521.625 115.241 520.802 118.595C519.98 121.97 520.929 125.387 523.355 127.771C524.22 128.636 524.726 129.993 524.726 131.385V131.617C524.726 132.208 525.19 132.672 525.781 132.672H534.218C534.809 132.672 535.273 132.208 535.273 131.617V131.385C535.273 130.014 535.8 128.615 536.728 127.708C538.5 125.915 539.491 123.531 539.491 121C539.491 118.089 538.184 115.368 535.906 113.554ZM529.999 117.836C528.408 117.836 527.25 118.891 526.946 120.113C526.808 120.669 526.249 121.024 525.668 120.884C525.104 120.744 524.759 120.171 524.899 119.606C525.421 117.497 527.403 115.727 529.999 115.727C530.582 115.727 531.054 116.198 531.054 116.781C531.054 117.364 530.582 117.836 529.999 117.836Z" fill="#1B61B5"/>
<path d="M525.781 134.781V135.836C525.781 137.581 527.2 139 528.945 139H531.054C532.799 139 534.218 137.581 534.218 135.836V134.781H525.781Z" fill="#1B61B5"/>
<path d="M531.11 149.886C530.266 149.886 529.418 149.848 528.567 149.775C512.757 148.401 500.76 134.439 501.822 118.647C502.337 111.001 505.8 104.069 511.567 99.1231C517.362 94.1566 524.779 91.7858 532.473 92.4538C548.283 93.8243 560.281 107.789 559.219 123.582C558.703 131.227 555.244 138.16 549.473 143.106C544.322 147.522 537.877 149.886 531.11 149.886ZM529.937 94.6238C523.714 94.6238 517.791 96.7939 513.058 100.854C507.759 105.398 504.579 111.77 504.105 118.796C503.126 133.356 514.19 146.231 528.768 147.498C535.832 148.107 542.665 145.933 547.989 141.368C553.289 136.824 556.468 130.452 556.942 123.426C557.925 108.866 546.858 95.9909 532.279 94.7242C531.498 94.655 530.716 94.6238 529.937 94.6238Z" fill="#1A1A1A"/>
</svg>
