<?xml version="1.0" encoding="UTF-8" ?>
<!DOCTYPE svg PUBLIC "-//W3C//DTD SVG 1.1//EN" "http://www.w3.org/Graphics/SVG/1.1/DTD/svg11.dtd">
<svg width="1600pt" height="820pt" viewBox="0 0 1600 820" version="1.1" xmlns="http://www.w3.org/2000/svg">
<g id="#00425aff">
<path fill="#00425a" opacity="1.00" d=" M 573.09 81.40 C 728.76 81.39 884.43 81.39 1040.10 81.41 C 1040.12 156.95 1040.11 232.49 1040.11 308.03 C 1040.36 309.46 1039.03 310.34 1038.24 311.28 C 1030.05 318.73 1022.79 327.11 1014.63 334.59 C 1005.32 344.29 995.47 353.44 986.19 363.16 C 978.18 370.55 971.04 378.80 962.96 386.10 C 942.37 365.44 921.71 344.85 901.09 324.21 C 907.70 316.80 915.29 310.34 922.02 303.04 C 927.39 297.39 933.28 292.25 938.58 286.52 C 947.66 277.00 957.85 268.47 965.75 257.86 C 984.03 232.69 982.12 195.53 962.21 171.83 C 948.85 154.54 926.79 144.78 905.08 145.40 C 822.32 145.43 739.56 145.40 656.80 145.41 C 663.47 153.02 671.22 159.58 678.08 167.01 C 712.16 200.91 746.02 235.01 780.10 268.91 C 786.52 275.91 793.80 282.06 800.11 289.16 C 822.05 289.22 843.99 289.20 865.93 289.17 C 833.17 256.21 800.31 223.31 767.31 190.58 C 812.21 190.13 857.16 190.53 902.07 190.38 C 910.76 190.15 919.70 194.09 924.63 201.40 C 930.54 209.39 931.91 220.63 927.51 229.62 C 924.77 235.53 919.70 239.77 915.24 244.32 C 907.66 251.36 900.87 259.17 893.20 266.12 C 887.34 272.28 881.36 278.34 875.16 284.15 C 867.50 292.52 858.99 300.03 851.26 308.32 C 841.56 317.59 832.45 327.43 822.69 336.62 C 817.38 342.02 812.49 348.29 805.38 351.41 C 793.85 357.16 779.01 355.08 769.43 346.50 C 703.96 281.10 638.59 215.59 573.08 150.21 C 573.11 127.27 573.08 104.34 573.09 81.40 Z" />
</g>
<g id="#efa300ff">
<path fill="#efa300" opacity="1.00" d=" M 573.12 215.85 C 578.76 221.88 584.94 227.37 590.67 233.32 C 597.20 240.45 604.58 246.75 611.09 253.90 C 617.59 260.43 624.33 266.70 630.59 273.46 C 637.12 279.58 643.32 286.02 649.57 292.42 C 657.58 299.75 664.71 307.98 672.71 315.32 C 679.73 322.62 686.94 329.72 694.18 336.81 C 700.69 343.96 708.04 350.28 714.60 357.38 C 718.13 361.21 722.05 364.67 725.73 368.36 C 731.43 373.91 736.51 380.15 742.99 384.87 C 768.03 405.37 806.38 407.18 833.27 389.22 C 840.07 384.89 846.15 379.50 851.57 373.54 C 856.90 367.88 862.70 362.68 868.12 357.10 C 888.85 377.65 909.45 398.30 930.02 419.00 C 889.80 459.39 849.35 499.54 809.06 539.85 C 808.10 540.45 806.87 542.77 805.68 541.40 C 728.38 464.34 651.20 387.14 573.84 310.13 C 572.62 309.10 573.18 307.36 573.04 306.00 C 573.13 275.95 572.98 245.90 573.12 215.85 Z" />
</g>
</svg>
