<?xml version="1.0" encoding="UTF-8" ?>
<!DOCTYPE svg PUBLIC "-//W3C//DTD SVG 1.1//EN" "http://www.w3.org/Graphics/SVG/1.1/DTD/svg11.dtd">
<svg width="1600pt" height="820pt" viewBox="0 0 1600 820" version="1.1" xmlns="http://www.w3.org/2000/svg">
<g id="#00425aff">
<path fill="#00425a" opacity="1.00" d=" M 573.08 81.41 C 728.76 81.38 884.43 81.40 1040.11 81.41 C 1040.10 156.95 1040.13 232.50 1040.09 308.04 C 1040.28 309.71 1038.65 310.67 1037.72 311.78 C 1029.87 318.93 1022.91 326.98 1015.08 334.15 C 1005.60 343.98 995.62 353.32 986.17 363.18 C 978.18 370.56 971.03 378.80 962.96 386.10 C 942.36 365.44 921.70 344.83 901.08 324.19 C 907.10 317.50 913.88 311.56 920.10 305.06 C 925.39 299.35 931.20 294.15 936.63 288.57 C 946.56 277.85 958.10 268.56 966.66 256.61 C 974.23 245.25 978.43 231.65 978.43 217.98 C 978.53 203.91 974.36 189.88 966.86 178.00 C 962.54 171.84 957.63 166.03 951.88 161.17 C 939.22 151.16 923.18 145.25 906.99 145.40 C 823.57 145.42 740.15 145.39 656.73 145.41 C 663.49 152.93 671.15 159.57 678.04 166.96 C 717.79 206.55 757.35 246.32 797.09 285.91 C 798.54 287.18 799.61 289.55 801.91 289.18 C 823.27 289.20 844.64 289.19 866.01 289.19 C 833.13 256.20 800.19 223.27 767.21 190.38 C 811.83 190.39 856.46 190.41 901.09 190.37 C 905.84 190.22 910.65 191.07 914.96 193.13 C 927.40 199.13 933.54 215.41 928.15 228.15 C 924.32 237.31 915.82 243.13 909.20 250.15 C 902.19 257.82 894.36 264.67 887.29 272.27 C 865.18 294.13 843.38 316.31 821.24 338.15 C 815.96 343.77 810.57 349.78 803.09 352.42 C 791.93 356.88 778.41 354.50 769.45 346.51 C 703.97 281.11 638.60 215.59 573.08 150.22 C 573.10 127.28 573.10 104.35 573.08 81.41 Z" />
<path fill="#00425a" opacity="1.00" d=" M 125.56 595.78 C 130.33 595.09 135.17 595.47 139.97 595.41 C 179.99 595.48 220.01 595.69 260.02 595.62 C 266.46 595.84 272.98 597.78 278.00 601.94 C 291.25 612.18 297.19 629.71 295.97 646.06 C 295.27 651.61 292.76 657.98 286.97 659.84 C 281.62 661.74 275.75 658.35 273.60 653.36 C 270.62 647.61 272.83 640.41 269.06 634.99 C 267.01 631.53 262.82 630.11 258.99 630.22 C 216.66 630.15 174.33 630.02 132.00 629.99 C 128.67 629.92 124.49 630.52 122.88 633.88 C 121.16 638.34 121.81 643.24 121.38 647.91 C 121.43 650.25 120.78 653.38 123.08 654.93 C 125.75 656.48 129.00 656.26 131.98 656.23 C 145.99 655.56 160.02 656.03 174.04 656.19 C 194.18 656.65 214.81 657.73 233.75 665.26 C 254.62 673.39 272.58 688.60 284.27 707.68 C 288.40 713.79 292.00 720.26 294.76 727.11 C 297.30 733.39 296.04 740.82 292.34 746.38 C 288.78 751.84 279.77 752.49 275.92 747.00 C 271.19 740.68 267.46 733.66 262.76 727.31 C 251.86 711.87 235.99 699.46 217.56 694.58 C 211.15 692.83 204.56 691.89 197.93 691.49 C 173.97 689.66 149.92 690.88 125.92 690.40 C 124.19 690.22 121.56 690.58 121.77 692.93 C 121.59 703.95 121.82 714.98 121.61 726.01 C 121.61 732.46 122.12 739.58 118.21 745.15 C 115.92 748.85 111.43 751.31 107.05 750.41 C 103.07 749.61 100.18 746.27 98.59 742.72 C 96.19 737.13 96.96 730.93 96.85 725.02 C 96.96 695.99 96.56 666.95 97.19 637.93 C 97.49 626.38 101.23 614.66 108.87 605.85 C 113.19 600.87 118.91 596.76 125.56 595.78 Z" />
<path fill="#00425a" opacity="1.00" d=" M 361.13 595.27 C 397.44 595.03 433.77 595.97 470.07 594.90 C 478.58 594.73 487.50 596.28 494.44 601.50 C 504.02 607.61 509.06 618.19 514.00 627.99 C 522.24 646.76 524.24 667.82 521.87 688.05 C 519.89 705.29 513.88 722.38 502.98 736.03 C 496.75 744.09 487.20 749.53 477.04 750.51 C 472.09 751.09 467.11 750.52 462.15 750.39 C 451.45 750.00 440.74 750.26 430.03 750.40 C 409.03 750.82 388.02 749.69 367.03 750.68 C 358.80 751.08 350.26 749.32 343.45 744.52 C 334.15 738.37 329.21 727.87 324.92 717.98 C 316.76 700.23 313.39 680.25 315.64 660.84 C 317.38 644.19 323.77 628.41 332.03 613.99 C 338.16 603.76 349.08 596.13 361.13 595.27 M 361.37 630.52 C 351.60 632.60 345.39 641.71 342.66 650.74 C 339.78 660.18 338.33 670.24 339.68 680.08 C 340.77 689.38 342.75 698.96 348.21 706.76 C 351.95 712.04 358.16 715.15 364.54 715.71 C 399.69 716.45 434.86 716.07 470.01 715.88 C 475.66 716.07 481.55 714.66 485.89 710.88 C 491.40 706.38 493.68 699.37 496.15 692.96 C 501.13 677.27 499.67 659.85 493.11 644.83 C 491.00 640.01 487.51 635.74 483.02 632.97 C 477.91 630.01 471.82 629.38 466.01 629.64 C 450.35 630.13 434.68 629.76 419.01 629.70 C 405.64 629.81 392.28 630.06 378.91 629.83 C 373.07 629.77 367.10 629.00 361.37 630.52 Z" />
<path fill="#00425a" opacity="1.00" d=" M 554.28 595.31 C 558.77 594.34 563.42 594.94 567.99 594.81 C 589.64 594.78 611.27 595.24 632.92 595.19 C 656.29 595.35 679.66 596.22 703.01 595.37 C 710.88 595.10 719.11 596.73 725.54 601.48 C 735.21 608.25 740.34 619.73 742.67 630.97 C 745.30 644.21 743.84 658.45 737.37 670.41 C 734.78 674.75 738.49 678.97 739.92 682.99 C 744.59 696.10 744.58 710.83 740.05 723.99 C 735.95 734.20 729.47 744.72 718.71 748.82 C 711.84 751.81 704.24 750.72 696.98 750.90 C 656.65 750.60 616.32 750.48 575.98 750.19 C 568.18 750.19 560.73 746.16 556.00 740.03 C 550.58 733.03 546.43 724.84 545.08 716.03 C 543.94 710.08 544.22 704.01 544.15 697.99 C 544.15 688.32 544.15 678.65 544.41 668.98 C 544.58 665.24 545.08 660.82 548.40 658.48 C 552.60 655.46 558.05 655.49 563.00 655.33 C 611.01 655.56 659.01 655.89 707.01 656.10 C 711.12 656.22 716.11 655.14 717.97 650.99 C 720.26 645.93 720.17 639.53 717.19 634.76 C 714.87 631.08 710.16 630.08 706.09 630.20 C 662.37 629.93 618.65 629.71 574.93 629.45 C 568.26 629.15 561.50 629.96 554.89 628.77 C 551.02 628.12 547.84 625.17 546.47 621.55 C 544.09 615.34 543.51 607.90 547.00 601.98 C 548.70 599.14 550.85 596.10 554.28 595.31 M 570.36 690.37 C 567.82 692.46 568.65 696.12 568.55 699.01 C 568.80 703.51 568.21 708.42 570.45 712.53 C 572.99 716.24 578.04 715.84 582.00 715.86 C 622.68 716.33 663.36 716.26 704.04 716.63 C 707.81 716.67 711.99 716.57 715.06 714.07 C 718.32 711.46 719.28 707.03 719.20 703.06 C 719.17 699.38 718.15 695.30 715.05 693.02 C 712.21 690.82 708.45 690.66 705.02 690.66 C 665.00 690.32 624.98 690.43 584.97 689.92 C 580.14 690.25 574.85 688.02 570.36 690.37 Z" />
<path fill="#00425a" opacity="1.00" d=" M 860.15 595.27 C 869.09 594.59 878.07 595.43 887.03 595.28 C 909.68 595.48 932.33 595.50 954.97 595.20 C 965.95 595.33 977.48 593.44 987.86 598.09 C 995.62 601.85 1002.23 608.01 1006.58 615.46 C 1012.77 625.82 1017.33 637.19 1019.84 649.01 C 1024.20 672.46 1022.47 697.54 1012.35 719.34 C 1008.16 728.73 1002.32 737.72 993.93 743.88 C 986.50 749.34 976.99 751.30 967.91 750.67 C 955.27 749.95 942.62 750.20 929.98 750.40 C 908.66 750.84 887.33 749.68 866.02 750.69 C 856.14 751.25 845.93 748.16 838.58 741.41 C 832.39 735.47 828.60 727.65 824.90 720.05 C 818.01 705.02 814.09 688.54 814.22 671.97 C 814.38 653.12 819.71 634.42 829.03 618.07 C 834.72 605.91 846.51 596.33 860.15 595.27 M 860.38 630.55 C 854.63 631.79 849.91 635.81 846.69 640.59 C 840.19 650.38 838.28 662.51 838.38 674.06 C 838.88 685.57 840.81 697.67 847.79 707.18 C 851.79 712.51 858.32 715.61 864.95 715.79 C 892.95 716.29 920.96 716.17 948.97 716.08 C 957.95 715.56 967.03 716.72 975.96 715.31 C 983.69 713.77 989.70 707.66 992.43 700.43 C 998.53 686.93 999.76 671.41 996.25 657.05 C 994.50 649.88 992.43 642.31 987.09 636.92 C 982.09 631.37 974.27 629.34 967.03 629.60 C 951.02 630.11 935.01 629.80 919.01 629.70 C 905.67 629.79 892.33 630.05 879.00 629.85 C 872.79 629.81 866.47 628.97 860.38 630.55 Z" />
<path fill="#00425a" opacity="1.00" d=" M 775.23 596.19 C 779.20 594.23 784.17 595.77 786.88 599.12 C 790.23 603.26 791.82 608.64 791.78 613.93 C 791.84 651.30 792.06 688.66 791.99 726.03 C 791.96 731.68 792.59 737.68 789.84 742.87 C 787.76 747.71 782.43 751.75 776.99 750.09 C 770.53 748.31 767.35 741.20 767.20 734.98 C 767.02 696.66 766.79 658.34 766.80 620.01 C 766.90 614.76 766.19 609.25 768.26 604.27 C 769.65 600.96 771.73 597.55 775.23 596.19 Z" />
</g>
<g id="#efa300ff">
<path fill="#efa300" opacity="1.00" d=" M 573.13 215.74 C 579.48 222.79 586.76 228.91 593.14 235.94 C 612.53 255.20 631.86 274.53 651.12 293.92 C 658.55 300.78 665.18 308.43 672.64 315.27 C 682.10 325.15 692.09 334.50 701.54 344.40 C 709.20 351.40 716.02 359.24 723.63 366.29 C 730.99 373.38 737.50 381.43 746.05 387.17 C 771.43 405.88 808.57 406.39 834.47 388.45 C 840.59 384.35 846.16 379.46 851.12 374.01 C 856.59 368.17 862.55 362.82 868.14 357.09 C 888.83 377.67 909.46 398.30 930.02 419.00 C 908.32 440.98 886.25 462.58 864.55 484.55 C 856.38 492.07 849.02 500.41 840.88 507.96 C 830.41 518.75 819.61 529.22 809.02 539.90 C 808.05 540.45 806.81 542.77 805.67 541.38 C 728.10 464.04 650.59 386.62 573.04 309.26 C 573.14 278.09 572.97 246.91 573.13 215.74 Z" />
<path fill="#efa300" opacity="1.00" d=" M 1226.39 595.59 C 1229.96 594.41 1234.04 595.76 1236.52 598.52 C 1239.98 602.46 1241.58 607.76 1241.52 612.96 C 1241.44 645.30 1241.68 677.64 1241.61 709.99 C 1241.72 717.64 1241.68 725.54 1238.71 732.74 C 1235.88 739.80 1231.15 746.92 1223.62 749.46 C 1216.84 752.03 1209.23 749.54 1203.75 745.23 C 1167.51 714.45 1131.53 683.35 1095.08 652.83 C 1089.81 648.08 1084.12 643.85 1078.58 639.45 C 1076.66 638.14 1073.39 635.91 1071.66 638.60 C 1068.44 644.53 1068.58 651.53 1068.43 658.10 C 1068.34 683.37 1068.62 708.63 1068.48 733.90 C 1068.33 739.42 1066.46 745.42 1061.82 748.80 C 1058.08 751.53 1052.54 750.93 1049.25 747.78 C 1045.68 744.52 1043.92 739.69 1043.75 734.93 C 1043.52 699.96 1043.62 664.98 1043.58 630.00 C 1043.41 621.42 1045.33 612.54 1050.53 605.55 C 1053.81 601.46 1057.72 597.33 1062.98 595.98 C 1069.38 594.09 1076.50 596.25 1081.33 600.71 C 1122.96 635.74 1163.96 671.52 1205.88 706.20 C 1208.04 707.86 1212.17 710.38 1214.07 707.10 C 1216.38 702.12 1216.32 696.43 1216.69 691.05 C 1217.07 664.38 1216.48 637.70 1216.76 611.04 C 1217.18 604.91 1220.02 597.60 1226.39 595.59 Z" />
<path fill="#efa300" opacity="1.00" d=" M 1273.41 595.61 C 1276.74 594.49 1280.59 595.41 1283.15 597.81 C 1286.98 601.43 1288.76 606.79 1288.63 611.99 C 1288.57 653.32 1288.88 694.65 1288.62 735.97 C 1288.51 742.78 1283.56 750.62 1276.04 750.27 C 1268.56 749.75 1264.51 741.68 1264.45 734.95 C 1264.26 693.93 1264.32 652.90 1264.20 611.89 C 1264.28 605.51 1267.00 598.03 1273.41 595.61 Z" />
<path fill="#efa300" opacity="1.00" d=" M 1317.45 597.31 C 1321.22 593.73 1327.19 594.98 1330.72 598.28 C 1344.28 613.01 1355.92 629.75 1371.74 642.26 C 1379.90 648.58 1389.37 654.03 1399.86 654.89 C 1408.87 655.93 1418.03 656.23 1427.02 654.82 C 1437.88 653.26 1448.25 648.58 1456.88 641.84 C 1462.18 637.83 1465.91 632.27 1470.58 627.62 C 1477.11 620.78 1483.31 613.63 1489.56 606.54 C 1492.57 603.21 1494.95 599.23 1498.57 596.49 C 1503.17 593.14 1510.05 595.52 1512.83 600.15 C 1515.70 605.13 1517.00 611.20 1515.54 616.84 C 1514.61 622.49 1510.54 626.74 1507.06 630.99 C 1498.45 641.35 1489.74 651.68 1479.96 660.96 C 1476.47 664.54 1472.36 667.47 1469.02 671.18 C 1467.58 672.28 1468.77 674.26 1469.91 675.08 C 1482.09 685.55 1493.02 697.40 1503.23 709.79 C 1508.25 715.96 1515.17 721.60 1516.19 729.98 C 1516.76 735.97 1515.48 742.69 1511.18 747.15 C 1507.61 750.91 1501.31 750.56 1497.52 747.33 C 1493.35 743.86 1490.50 739.14 1486.80 735.21 C 1480.12 727.91 1474.10 719.97 1466.69 713.37 C 1463.94 710.76 1461.04 708.32 1458.38 705.63 C 1451.23 697.42 1440.54 693.31 1430.08 691.32 C 1414.09 688.38 1397.05 689.57 1382.09 696.17 C 1376.58 698.57 1371.65 702.23 1367.79 706.84 C 1359.53 714.89 1351.93 723.56 1344.02 731.95 C 1340.28 735.92 1337.06 740.33 1333.53 744.48 C 1330.61 747.89 1326.16 750.79 1321.50 749.95 C 1314.91 748.41 1311.88 741.06 1311.34 734.95 C 1310.52 728.50 1313.74 722.46 1317.78 717.69 C 1329.49 703.54 1341.36 689.33 1355.53 677.54 C 1357.13 676.27 1358.51 674.75 1359.60 673.02 C 1354.51 666.60 1347.47 662.08 1342.03 655.98 C 1335.09 648.25 1327.88 640.74 1321.58 632.47 C 1318.32 628.29 1314.55 624.39 1312.34 619.52 C 1309.23 611.97 1311.73 602.91 1317.45 597.31 Z" />
</g>
</svg>
